# xmcd
#
# Track frame offsets: 
#        150
#        9184
#        18928
#        29006
#        39174
#        48294
#        53518
#        61926
#        72204
#        82445
#        92382
#        99556
#
# Disc length: 1439 seconds
#
# Revision: 0
# Processed by: cddbd v1.5.2PL0 Copyright (c) Steve Scherf et al.
# Submitted via: ExactAudioCopyFreeDBPlugin 1.0
#
DISCID=89059d0c
DTITLE=Howard "Howdy" Forrester - The MGM Recordings
DYEAR=1958
DGENRE=Bluegrass
TTITLE0=Rutland's Reel
TTITLE1=Fiddler's Waltz
TTITLE2=Leather Britches
TTITLE3=Dog In The Rye Straw
TTITLE4=Brilliancy
TTITLE5=Strictly Forrester
TTITLE6=High Level Hornpipe
TTITLE7=Sally Goodin'
TTITLE8=Say Old Man
TTITLE9=Cruel Willie
TTITLE10=Clarinet Polka
TTITLE11=Gray Eagle Hornpipe
EXTD=
EXTT0=
EXTT1=
EXTT2=
EXTT3=
EXTT4=
EXTT5=
EXTT6=
EXTT7=
EXTT8=
EXTT9=
EXTT10=
EXTT11=
PLAYORDER=
